<svg id="visual" viewBox="0 0 900 600" width="900" height="600" xmlns="http://www.w3.org/2000/svg" xmlns:xlink="http://www.w3.org/1999/xlink" version="1.1"><path d="M0 91L13.7 88C27.3 85 54.7 79 82 76C109.3 73 136.7 73 163.8 71C191 69 218 65 245.2 70C272.3 75 299.7 89 327 89C354.3 89 381.7 75 409 66C436.3 57 463.7 53 491 59C518.3 65 545.7 81 573 80C600.3 79 627.7 61 654.8 55C682 49 709 55 736.2 59C763.3 63 790.7 65 818 62C845.3 59 872.7 51 886.3 47L900 43L900 0L886.3 0C872.7 0 845.3 0 818 0C790.7 0 763.3 0 736.2 0C709 0 682 0 654.8 0C627.7 0 600.3 0 573 0C545.7 0 518.3 0 491 0C463.7 0 436.3 0 409 0C381.7 0 354.3 0 327 0C299.7 0 272.3 0 245.2 0C218 0 191 0 163.8 0C136.7 0 109.3 0 82 0C54.7 0 27.3 0 13.7 0L0 0Z" fill="#6198ff"></path><path d="M0 289L13.7 272C27.3 255 54.7 221 82 206C109.3 191 136.7 195 163.8 211C191 227 218 255 245.2 262C272.3 269 299.7 255 327 233C354.3 211 381.7 181 409 181C436.3 181 463.7 211 491 224C518.3 237 545.7 233 573 219C600.3 205 627.7 181 654.8 171C682 161 709 165 736.2 169C763.3 173 790.7 177 818 177C845.3 177 872.7 173 886.3 171L900 169L900 41L886.3 45C872.7 49 845.3 57 818 60C790.7 63 763.3 61 736.2 57C709 53 682 47 654.8 53C627.7 59 600.3 77 573 78C545.7 79 518.3 63 491 57C463.7 51 436.3 55 409 64C381.7 73 354.3 87 327 87C299.7 87 272.3 73 245.2 68C218 63 191 67 163.8 69C136.7 71 109.3 71 82 74C54.7 77 27.3 83 13.7 86L0 89Z" fill="#3c80ff"></path><path d="M0 403L13.7 389C27.3 375 54.7 347 82 333C109.3 319 136.7 319 163.8 332C191 345 218 371 245.2 371C272.3 371 299.7 345 327 321C354.3 297 381.7 275 409 273C436.3 271 463.7 289 491 311C518.3 333 545.7 359 573 349C600.3 339 627.7 293 654.8 276C682 259 709 271 736.2 276C763.3 281 790.7 279 818 273C845.3 267 872.7 257 886.3 252L900 247L900 167L886.3 169C872.7 171 845.3 175 818 175C790.7 175 763.3 171 736.2 167C709 163 682 159 654.8 169C627.7 179 600.3 203 573 217C545.7 231 518.3 235 491 222C463.7 209 436.3 179 409 179C381.7 179 354.3 209 327 231C299.7 253 272.3 267 245.2 260C218 253 191 225 163.8 209C136.7 193 109.3 189 82 204C54.7 219 27.3 253 13.7 270L0 287Z" fill="#0066ff"></path><path d="M0 523L13.7 526C27.3 529 54.7 535 82 538C109.3 541 136.7 541 163.8 532C191 523 218 505 245.2 506C272.3 507 299.7 527 327 534C354.3 541 381.7 535 409 532C436.3 529 463.7 529 491 530C518.3 531 545.7 533 573 530C600.3 527 627.7 519 654.8 511C682 503 709 495 736.2 489C763.3 483 790.7 479 818 490C845.3 501 872.7 527 886.3 540L900 553L900 245L886.3 250C872.7 255 845.3 265 818 271C790.7 277 763.3 279 736.2 274C709 269 682 257 654.8 274C627.7 291 600.3 337 573 347C545.7 357 518.3 331 491 309C463.7 287 436.3 269 409 271C381.7 273 354.3 295 327 319C299.7 343 272.3 369 245.2 369C218 369 191 343 163.8 330C136.7 317 109.3 317 82 331C54.7 345 27.3 373 13.7 387L0 401Z" fill="#0059dd"></path><path d="M0 601L13.7 601C27.3 601 54.7 601 82 601C109.3 601 136.7 601 163.8 601C191 601 218 601 245.2 601C272.3 601 299.7 601 327 601C354.3 601 381.7 601 409 601C436.3 601 463.7 601 491 601C518.3 601 545.7 601 573 601C600.3 601 627.7 601 654.8 601C682 601 709 601 736.2 601C763.3 601 790.7 601 818 601C845.3 601 872.7 601 886.3 601L900 601L900 551L886.3 538C872.7 525 845.3 499 818 488C790.7 477 763.3 481 736.2 487C709 493 682 501 654.8 509C627.7 517 600.3 525 573 528C545.7 531 518.3 529 491 528C463.7 527 436.3 527 409 530C381.7 533 354.3 539 327 532C299.7 525 272.3 505 245.2 504C218 503 191 521 163.8 530C136.7 539 109.3 539 82 536C54.7 533 27.3 527 13.7 524L0 521Z" fill="#004cbb"></path></svg>